<?xml version="1.0" encoding="UTF-8" standalone="no"?>
<!DOCTYPE svg PUBLIC "-//W3C//DTD SVG 1.1//EN"
 "http://www.w3.org/Graphics/SVG/1.1/DTD/svg11.dtd">
<!-- Generated by graphviz version 2.40.1 (20161225.0304)
 -->
<!-- Title: G Pages: 1 -->
<svg width="170pt" height="260pt"
 viewBox="0.00 0.00 170.00 260.00" xmlns="http://www.w3.org/2000/svg" xmlns:xlink="http://www.w3.org/1999/xlink">
<g id="graph0" class="graph" transform="scale(1 1) rotate(0) translate(4 256)">
<title>G</title>
<polygon fill="#ffffff" stroke="transparent" points="-4,4 -4,-256 166,-256 166,4 -4,4"/>
<!-- 3 -->
<g id="node1" class="node">
<title>3</title>
<ellipse fill="none" stroke="#000000" cx="63" cy="-234" rx="27" ry="18"/>
<text text-anchor="middle" x="63" y="-229.8" font-family="Times,serif" font-size="14.00" fill="#000000">3</text>
</g>
<!-- 9 -->
<g id="node2" class="node">
<title>9</title>
<ellipse fill="none" stroke="#000000" cx="27" cy="-162" rx="27" ry="18"/>
<text text-anchor="middle" x="27" y="-157.8" font-family="Times,serif" font-size="14.00" fill="#000000">9</text>
</g>
<!-- 3&#45;&gt;9 -->
<g id="edge1" class="edge">
<title>3&#45;&gt;9</title>
<path fill="none" stroke="#000000" d="M54.2854,-216.5708C50.0403,-208.0807 44.8464,-197.6929 40.1337,-188.2674"/>
<polygon fill="#000000" stroke="#000000" points="43.237,-186.6477 35.6343,-179.2687 36.976,-189.7782 43.237,-186.6477"/>
</g>
<!-- 20 -->
<g id="node3" class="node">
<title>20</title>
<ellipse fill="none" stroke="#000000" cx="99" cy="-162" rx="27" ry="18"/>
<text text-anchor="middle" x="99" y="-157.8" font-family="Times,serif" font-size="14.00" fill="#000000">20</text>
</g>
<!-- 3&#45;&gt;20 -->
<g id="edge2" class="edge">
<title>3&#45;&gt;20</title>
<path fill="none" stroke="#000000" d="M71.7146,-216.5708C75.9597,-208.0807 81.1536,-197.6929 85.8663,-188.2674"/>
<polygon fill="#000000" stroke="#000000" points="89.024,-189.7782 90.3657,-179.2687 82.763,-186.6477 89.024,-189.7782"/>
</g>
<!-- 15 -->
<g id="node4" class="node">
<title>15</title>
<ellipse fill="none" stroke="#000000" cx="63" cy="-90" rx="27" ry="18"/>
<text text-anchor="middle" x="63" y="-85.8" font-family="Times,serif" font-size="14.00" fill="#000000">15</text>
</g>
<!-- 20&#45;&gt;15 -->
<g id="edge3" class="edge">
<title>20&#45;&gt;15</title>
<path fill="none" stroke="#000000" d="M90.2854,-144.5708C86.0403,-136.0807 80.8464,-125.6929 76.1337,-116.2674"/>
<polygon fill="#000000" stroke="#000000" points="79.237,-114.6477 71.6343,-107.2687 72.976,-117.7782 79.237,-114.6477"/>
</g>
<!-- 7 -->
<g id="node5" class="node">
<title>7</title>
<ellipse fill="none" stroke="#000000" cx="135" cy="-90" rx="27" ry="18"/>
<text text-anchor="middle" x="135" y="-85.8" font-family="Times,serif" font-size="14.00" fill="#000000">7</text>
</g>
<!-- 20&#45;&gt;7 -->
<g id="edge4" class="edge">
<title>20&#45;&gt;7</title>
<path fill="none" stroke="#000000" d="M107.7146,-144.5708C111.9597,-136.0807 117.1536,-125.6929 121.8663,-116.2674"/>
<polygon fill="#000000" stroke="#000000" points="125.024,-117.7782 126.3657,-107.2687 118.763,-114.6477 125.024,-117.7782"/>
</g>
<!-- 8 -->
<g id="node6" class="node">
<title>8</title>
<ellipse fill="none" stroke="#000000" cx="63" cy="-18" rx="27" ry="18"/>
<text text-anchor="middle" x="63" y="-13.8" font-family="Times,serif" font-size="14.00" fill="#000000">8</text>
</g>
<!-- 15&#45;&gt;8 -->
<g id="edge5" class="edge">
<title>15&#45;&gt;8</title>
<path fill="none" stroke="#000000" d="M63,-71.8314C63,-64.131 63,-54.9743 63,-46.4166"/>
<polygon fill="#000000" stroke="#000000" points="66.5001,-46.4132 63,-36.4133 59.5001,-46.4133 66.5001,-46.4132"/>
</g>
</g>
</svg>
